<?xml version="1.0"?><svg width="793.701" height="1122.52" xmlns="http://www.w3.org/2000/svg">
 <title>Letter B Monogram</title>
 <metadata id="metadata4">image/svg+xml</metadata>
 <g>
  <title>Layer 1</title>
  <g id="layer1">
   <path id="path2453" fill="#000000" d="m355.566986,696.939026c-9.921997,-0.309021 -18.471985,-0.821045 -19,-1.138c-0.527985,-0.317017 -4.165985,-0.857056 -8.085999,-1.199036c-7.237,-0.632019 -18.016998,-2.242004 -33.372986,-4.982971c-27.588013,-4.925049 -72.027008,-22.007019 -95,-36.517029c-3.574997,-2.257996 -7.400009,-4.505005 -8.5,-4.992981c-2.563004,-1.138 -17.779999,-11.39502 -23,-15.502991c-2.199997,-1.731018 -5.951004,-4.463989 -8.335999,-6.072021c-2.384003,-1.607971 -7.109009,-5.401978 -10.5,-8.429993c-10.331009,-9.22699 -42.891006,-42.005981 -47.488007,-47.807983c-8.994499,-11.351013 -32.1763,-48.955994 -32.1763,-52.195007c0,-0.605042 -0.337494,-1.106018 -0.75,-1.112c-0.412399,-0.006042 -1.649399,-1.919006 -2.748894,-4.25c-1.099304,-2.331024 -3.686802,-7.338013 -5.750004,-11.127014c-2.063099,-3.789001 -3.751099,-7.626007 -3.751099,-8.527008c0,-0.901978 -0.591801,-2.526978 -1.3153,-3.612c-0.7234,-1.084991 -1.894901,-3.996979 -2.603199,-6.471985c-0.708401,-2.475006 -1.6408,-4.950012 -2.072102,-5.5c-0.7542,-0.962006 -5.118198,-13.585999 -8.2971,-24c-0.8395,-2.75 -2.0532,-7.700012 -2.697399,-11c-0.644402,-3.300018 -1.999599,-9.600006 -3.012001,-14c-1.012299,-4.399994 -2.131298,-10.925018 -2.486599,-14.5c-0.355301,-3.575012 -1.389,-11.450012 -2.297001,-17.5c-2.064199,-13.753021 -2.213699,-64.438019 -0.2183,-74c0.688499,-3.300018 2.083599,-11.175018 3.1003,-17.5c2.662701,-16.567993 3.6633,-20.979004 8.053001,-35.5c7.638798,-25.271011 10.2243,-33.202011 12.437,-38.152008c0.774799,-1.733002 1.408699,-3.455002 1.408699,-3.826004c0,-0.602997 15.371899,-31.817001 18.910503,-38.399002c4.246094,-7.897995 18.643494,-28.412994 29.873795,-42.565994c18.518005,-23.337997 60.384003,-59.624901 85.716003,-74.2938c9.975998,-5.776695 29.787003,-15.555798 38,-18.756699c3.849991,-1.500698 8.800003,-3.5168 11,-4.480198c3.606003,-1.579601 23.463013,-8.627003 31,-11.0023c24.292999,-7.656801 63.605988,-13.680502 87,-13.330502c30.526001,0.456699 52.96701,2.577101 72.5,6.8503c3.575012,0.782101 9.846985,2.116299 13.938995,2.964901c7.696991,1.5965 10.321991,2.360298 25.649994,7.464298c4.999023,1.6646 9.567017,3.0266 10.149994,3.0266c0.584015,0 4.960022,1.8176 9.72403,4.039101c4.763977,2.2216 10.770996,4.883801 13.348999,5.9161c20.298004,8.1273 59.639984,32.497303 71.322968,44.179798c0.942017,0.942406 2.734009,2.260406 3.983032,2.928406c7.625977,4.080994 42.367004,40.540001 54.156982,56.835991c7.044983,9.737 15.674011,22.884003 17.020996,25.932999c0.648987,1.46701 1.731995,3.118011 2.40802,3.668015c0.675964,0.549988 2.856995,4.149994 4.846008,8c1.988953,3.849991 4.16095,7.674988 4.824951,8.5c1.359009,1.685989 3.897034,6.964996 8.657043,18c1.778992,4.125 3.849976,8.386993 4.601013,9.472c0.751953,1.084991 1.366943,2.746994 1.366943,3.692993c0,0.945999 0.861023,3.207993 1.914001,5.026993c1.05304,1.819 2.482056,5.333008 3.175049,7.808014c0.69397,2.474991 1.570984,4.949997 1.949951,5.5c1.165039,1.688995 6.690002,21.462982 8.801025,31.5c3.463013,16.463989 4.11499,20.25 5.202026,30.218994c0.583984,5.345001 1.294983,10.744995 1.580994,12c0.286987,1.253998 0.692993,12.631012 0.902954,25.281006c0.286011,17.248993 -0.004944,25.625 -1.165955,33.5c-2.131042,14.451996 -2.075012,14.04599 -3.81604,27.5c-1.906006,14.737 -1.935974,14.910004 -4.450989,26c-3.282959,14.472992 -9.125977,33.487 -12.645996,41.151001c-0.796021,1.733002 -1.447021,3.447998 -1.447021,3.811981c0,0.363007 -1.178955,3.220001 -2.620972,6.348999c-1.440979,3.128021 -3.747986,8.163025 -5.127014,11.188019c-6.255981,13.723969 -13.378967,26.733002 -20.807007,37.999969c-2.719971,4.125 -5.169983,7.725037 -5.445007,8c-0.585999,0.585999 -2.993958,4.035034 -9.075989,13c-4.639954,6.840027 -4.677979,6.890015 -10.463013,14c-9.007996,11.070007 -13.333984,15.965027 -19.914978,22.530029c-8.88501,8.865967 -18.583008,17.469971 -19.690002,17.469971c-0.466003,0 -3.987,2.880005 -7.82196,6.400024c-5.88501,5.401001 -18.685059,14.486023 -34.034058,24.156982c-4.179993,2.632996 -26.654968,14.759033 -36.499969,19.692017c-15.498016,7.765991 -45.837006,18.078979 -65.5,22.265015c-0.825012,0.175964 -3.75,0.84198 -6.5,1.47998c-2.75,0.638977 -5.899994,1.286987 -7,1.440979c-1.100006,0.154053 -3.575012,0.538025 -5.5,0.854004c-4.080994,0.671021 -17.881012,2.379028 -26.5,3.281006c-15.882996,1.663025 -22.326996,1.888 -39.041016,1.368042zm14.318024,-6.495056c1.222992,-0.855957 2.222992,-2.203979 2.222992,-2.994995c0,-1.113953 0.842987,-1.28595 3.75,-0.763977c5.088989,0.914978 9.182007,0.617004 10.880005,-0.792969c1.171997,-0.972046 0.665985,-1.869019 -2.979004,-5.281006c-4.778015,-4.473022 -9.740997,-11.39502 -15.475006,-21.580017c-3.148987,-5.593994 -3.721008,-6.171997 -3.984985,-4.030029c-0.171021,1.375 -1.183014,4.407043 -2.25,6.739014c-1.068024,2.330994 -1.94101,4.658997 -1.94101,5.171997c0,1.807983 -9.225006,11.04303 -14.580994,14.598999c-2.981018,1.978027 -5.419006,3.970032 -5.419006,4.426025c0,2.002014 10.718994,2.81897 13.992004,1.067017c1.488007,-0.796021 2.462982,-0.394043 4.858002,2c3.377991,3.378967 7.401978,3.908997 10.927002,1.439941zm-42.684021,-8.303955c13.197021,-4.541016 24.538025,-14.752991 30.137024,-27.139038c3.185974,-7.047974 4.556,-17.274963 3.371002,-25.171997c-0.644012,-4.296997 -6.327026,-14.300964 -10.272003,-18.08197c-10.725006,-10.278015 -20.686005,-14.627991 -35.291016,-15.411011c-15.747009,-0.843018 -29.863983,2.674988 -55.037994,13.715027c-9.817001,4.304993 -11.673004,4.929993 -28.5,9.589966c-8.492996,2.35199 -11.959,2.776001 -23,2.815002c-9.186005,0.031006 -14.027008,-0.382019 -16.5,-1.408997c-7.040009,-2.921997 -14.516006,-9.58197 -17.014999,-15.156982c-0.589005,-1.314026 -1.720001,-3.514038 -2.513,-4.889038c-1.956009,-3.390991 -1.869003,-13.362976 0.154999,-17.625977c0.893997,-1.885986 2.755005,-4.317017 4.134003,-5.401978c9.223999,-7.255005 17.494995,8.802002 8.761002,17.006958c-1.387009,1.30304 -2.522003,3.110046 -2.522003,4.015015c0,2.601013 5.195999,7.741028 10.054993,9.945007c10.327011,4.684998 16.945007,1.15802 16.945007,-9.031982c0,-5.291016 -3.626007,-17.616028 -6.113007,-20.777039c-3.590988,-4.566956 -1.748001,-5.717957 2.444,-1.526978c3.320007,3.320984 8.159012,15.89801 9.514008,24.72998c1.231003,8.02301 1.858002,8.960999 7.024002,10.509033c2.140991,0.641968 4.451996,1.839966 5.134995,2.661987c1.951004,2.35199 3.134003,1.724976 8.835999,-4.682007c4.985001,-5.601013 5.309006,-6.278015 4.869003,-10.161987c-0.259003,-2.288025 -1.197006,-5.827026 -2.084,-7.864014c-2.609009,-5.98999 -12.748001,-17.69397 -20.125,-23.231995c-1.984009,-1.489014 -1.983002,-1.500977 0.160004,-1.53302c2.103989,-0.031006 11.039001,6.340027 14.627991,10.429993c0.984009,1.121033 4.214996,5.42804 7.181,9.571045c7.218002,10.083008 8.372009,10.992004 14.783997,11.653992c6.276001,0.64801 11.498993,-0.723022 17.06601,-4.478027c3.296997,-2.223999 7.471985,-7.802979 6.503998,-8.691956c-0.178009,-0.163025 -2.347992,-0.992004 -4.822998,-1.842041c-13.475006,-4.625977 -22.505005,-9.145996 -34.320999,-17.177979c-4.852005,-3.298035 -10.529007,-6.895996 -12.617004,-7.996033c-2.087006,-1.099976 -4.418991,-2.526001 -5.181,-3.166992c-2.188004,-1.84198 -11.942993,-5.544006 -16.880997,-6.406006c-9.277008,-1.619995 -28.225006,3.887024 -30.960007,8.997009c-0.626999,1.171997 -1.537003,1.887024 -2.020996,1.587036c-1.761002,-1.088013 -9.061996,7.651978 -12.520996,14.988953c-3.358002,7.123047 -4.091995,11.875 -3.367004,21.794006c0.761002,10.410034 2.531006,15.007996 8.738998,22.705994c7.886002,9.777039 14.533005,13.93103 30.195007,18.871033c7.556992,2.382996 20.800995,2.463989 30.839996,0.187012c17.022003,-3.859009 28.759003,-8.272034 37.595001,-14.13501c11.272003,-7.478027 28.419006,-13.791016 41.618011,-15.320984c5.396973,-0.625 19.350983,2.092957 24.690979,4.810974c12.701019,6.463989 18.347015,19.434998 13.140015,30.190979c-2.328003,4.809021 -8.244995,8.444031 -12.44101,7.642029c-3.432007,-0.656006 -7.507996,-5.718018 -7.507996,-9.322998c0,-3.812012 3.179993,-6.923035 7.075989,-6.923035c2.945007,0 3.063019,-0.16095 2.762024,-3.75c-0.597015,-7.110962 -7.961029,-12.678955 -16.472015,-12.455994c-6.352997,0.16803 -9.230988,1.841003 -12.177002,7.083008c-2.589996,4.606995 -2.877991,11.538025 -0.697998,16.755005c2.354004,5.634033 9.082001,12.97998 13.511993,14.752014c4.576019,1.830994 5.498993,3.906982 1.188019,2.671021c-11.248016,-3.227051 -21.108002,-16.391052 -21.167999,-28.265015c-0.03302,-6.588013 -3.460999,-9.785034 -10.513,-9.804016c-2.756012,-0.007996 -5.958008,-0.268005 -7.115997,-0.578979c-1.698029,-0.455994 -3.006012,0.631958 -6.75,5.612976c-3.902008,5.190002 -4.644012,6.888 -4.644012,10.622009c0,3.916992 0.562012,5.049011 4.75,9.554016c5.782013,6.221985 17.781006,15.266968 23.764984,17.912964c6.098022,2.697998 6.893005,4.343018 1.766022,3.655029c-8.473022,-1.135986 -17.171997,-6.471985 -27.651001,-16.958984c-5.428009,-5.433044 -11.248993,-10.591003 -12.934021,-11.463013c-7.786987,-4.026001 -26.070984,1.541992 -30.671982,9.341003c-2.945007,4.990967 -2.645004,6.316956 1.425995,6.316956c6.671005,0 14.160004,2.257996 25.550003,7.703003c23.639984,11.302002 38.204987,17.063049 47,18.590027c7.006012,1.21698 19.932007,0.622009 25.092987,-1.153992zm104.151001,-1.874023c0.69101,-0.542969 2.863007,-1.234009 4.826996,-1.534973c1.96402,-0.301025 7.139008,-2.205017 11.5,-4.231995c4.361023,-2.026001 10.629028,-4.937012 13.929016,-6.468018c15.846985,-7.351013 24.765991,-10.030029 33.384003,-10.030029c3.914001,0 7.115997,-0.23999 7.115997,-0.532959c0,-4.217041 -10.270996,-16.467041 -13.806,-16.467041c-0.987,0 -2.256012,-0.461975 -2.821014,-1.026978c-0.563995,-0.565002 -3.375,-1.304993 -6.246002,-1.64502c-8.873993,-1.050964 -11.825989,0.601013 -23.583984,13.194031c-8.277008,8.86499 -11.773987,11.848999 -16.752014,14.292969c-6.294983,3.090027 -11.790985,4.886047 -11.790985,3.852051c0,-0.30304 2.812012,-2.039001 6.25,-3.859009c7.420013,-3.92804 19.675995,-15.621033 22.467987,-21.436035c2.494019,-5.19397 2.096008,-8.953979 -1.713989,-16.182007c-1.649994,-3.130005 -3.001007,-6.252991 -3.002014,-6.940002c-0.002991,-1.61499 0.051025,-1.620972 -8.346985,0.882019c-3.934998,1.171997 -8.153015,3.036987 -9.372986,4.143005c-2.363007,2.143982 -4.713013,8.442017 -5.823029,15.603027c-0.815979,5.266968 -3.536987,10.289001 -8.371979,15.453979c-4.358002,4.656006 -7.990021,6.667969 -12.037994,6.667969c-4.146027,0 -3.844025,-1.582947 0.580994,-3.044006c4.18399,-1.379944 10.450989,-6.722961 13.259979,-11.302979c1.064026,-1.734009 2.256012,-5.403015 2.650024,-8.153015c0.393982,-2.75 0.843994,-5.716003 1,-6.589966c0.485992,-2.729004 -3.240997,-9.671021 -6.207001,-11.559021c-1.558014,-0.992981 -3.122009,-2.211975 -3.473999,-2.709961c-0.796997,-1.126038 -7,-0.019043 -11.248016,2.006958c-3.384003,1.614014 -7.610992,6.919983 -7.610992,9.554993c0,0.869019 1.162994,1.872009 2.585999,2.229004c7.083008,1.778015 9.937988,10.437012 4.778992,14.494995c-3.30899,2.603027 -9.997986,2.731018 -12.967987,0.248047c-3.315002,-2.770996 -4.397003,-5.621033 -4.397003,-11.579041c0,-9.709961 5.072998,-16.390991 16.950989,-22.325012c5.244995,-2.619995 6.287018,-2.770996 19.049011,-2.761963c13.777985,0.01001 17.109009,0.682983 29.209991,5.903992c1.809021,0.781006 5.089996,2.192017 7.290009,3.13501c2.200012,0.942993 5.772003,2.555969 7.937988,3.583008c2.165009,1.027954 4.28302,1.868958 4.705017,1.868958c0.421997,0 3.824982,1.412048 7.561981,3.139038c3.737,1.726013 8.595001,3.947998 10.795013,4.937988c18.312012,8.234985 48.376007,8.070984 62.277985,-0.341003c15.752014,-9.530029 22.843018,-21.228027 23.942993,-39.494995c0.673035,-11.174011 -3.85498,-21.557007 -13.529968,-31.028015c-6.991028,-6.843018 -12.717041,-9.657959 -23.19104,-11.403015c-15.118958,-2.517944 -22.764954,-1.203003 -36.990967,6.363037c-5.230011,2.781982 -11.932007,6.917969 -14.894012,9.192017c-17.488983,13.428955 -25.230988,17.634949 -32.462006,17.634949c-3.004974,0 -8.763977,2.89502 -5.902985,2.968018c0.687012,0.017029 1.251984,0.593994 1.253998,1.281982c0.006989,1.756042 5.541992,7.46405 8.945007,9.223022c4.695007,2.427979 11.421997,3.567017 15.001984,2.541016c3.720001,-1.067017 6.434021,-3.755005 11.921997,-11.807007c6.291016,-9.229004 19.434998,-20.05603 28.018036,-23.078979c2.812988,-0.991028 5.412964,-2.100037 5.777954,-2.465027c0.365051,-0.36499 1.264038,-0.663025 1.997009,-0.663025c2.934998,0 0.978027,1.707031 -6.045959,5.275024c-16.568024,8.414978 -32.884033,30.093994 -28.121033,37.36499c0.800995,1.221008 2.821991,3.027039 4.494019,4.014038c1.67099,0.987976 3.593994,3.07196 4.271973,4.630981c1.009003,2.317017 1.692017,2.734985 3.735016,2.283997c1.375,-0.304016 4.648987,-0.996033 7.277008,-1.539978c2.626984,-0.54303 5.623962,-1.44104 6.659973,-1.996033c2.046021,-1.094971 3.210022,-6.038025 2.950989,-12.53302c-0.194946,-4.899963 1.768005,-11.822998 4.679016,-16.5c2.251038,-3.615967 12.046021,-13 13.570984,-13c1.654053,0 0.822021,1.275024 -4.781982,7.329041c-8.979004,9.697998 -11.235962,17.031982 -7.815002,25.399963c2.126038,5.203003 5.234985,7.189026 11.677002,7.458008c4.255981,0.17804 6.070984,-0.256958 8.609985,-2.065002c2.960999,-2.107971 7.171997,-8.617004 7.171997,-11.084961c0,-0.574036 -1.799988,-2.669006 -4,-4.656006c-3.10498,-2.804993 -4,-4.342041 -4,-6.863037c0,-8.062012 8.309021,-11.299011 14.805054,-5.768005c3.635986,3.095032 6.592957,12.153015 5.671997,17.377014c-2.213013,12.562988 -14.822998,23.395996 -30.157043,25.90802c-14.513,2.377014 -33.700989,0 -44.496979,-5.513c-1.828003,-0.932983 -5.851013,-2.52002 -8.94101,-3.526001c-3.089996,-1.005981 -7.815002,-2.921021 -10.5,-4.255981c-4.542999,-2.258057 -19.248993,-7.92804 -27.440979,-10.580017c-11.167023,-3.614014 -31.913025,-3.898987 -41.44101,-0.569031c-13.902008,4.859009 -23.787994,17.296021 -27.029999,34.001038c-1.23999,6.389954 -1.196991,7.828003 0.432007,14.505981c3.925995,16.098022 12.066986,26.052002 25.365997,31.015991c4.480988,1.673035 7.131989,1.89502 18.475983,1.546021c7.285004,-0.223022 13.809998,-0.851013 14.5,-1.39502zm-60.404999,-66.115967c4.149017,-3.875 3.218018,-7.90802 -2.536987,-10.988037c-3.580994,-1.916016 -9.315002,1.320984 -9.287994,5.244019c0.03299,4.648987 2.944977,7.692993 8.130005,8.494995c0.353973,0.054993 2.016998,-1.182983 3.694977,-2.750977zm216.433014,-9.947998c2.325012,-2.090027 6.070007,-4.602051 8.320984,-5.582031c2.975037,-1.294983 4.544983,-2.805969 5.747009,-5.529968c0.909973,-2.062012 2.828979,-4.377014 4.265015,-5.146057c1.435974,-0.767944 3.958008,-3.35498 5.604004,-5.747986l2.993958,-4.351013l-7.85199,0.680054c-5.46698,0.472961 -10.661011,0.192993 -17.10199,-0.923035c-11.419983,-1.97699 -10.602966,-2.031006 -9.851013,0.648987c1.429016,5.095032 1.824036,19.546997 0.632996,23.155029c-2.440002,7.393982 0.752014,8.625977 7.241028,2.796021zm-436.027008,-11.059998c-0.496994,-12.27002 -0.403,-13.117004 2.061005,-18.5c1.421005,-3.103027 2.419998,-5.641052 2.220993,-5.641052c-0.19899,0 -2.405991,0.876038 -4.904999,1.947021c-7.112,3.049011 -13.804993,3.887024 -23.329994,2.921021c-4.741005,-0.480042 -8.805,-0.689026 -9.029999,-0.463989c-0.664001,0.66394 2.399994,5.876953 5.171997,8.801941c1.411003,1.488037 2.566002,3.382019 2.566002,4.208008c0,2.367004 7.235992,9.356995 10.522003,10.165039c2.886993,0.708984 7.477997,4.631958 7.477997,6.388977c0,0.845032 4.380997,2.796021 6.632996,2.953003c0.815002,0.05603 0.987,-3.53302 0.612,-12.779968zm250.255005,-0.683044c19.859009,-3.33197 31.768005,-6.786987 51.5,-14.940979c21.660004,-8.952026 39.674011,-18.710999 50.062988,-27.124023c11.355988,-9.195984 27.011017,-23.355957 31.195038,-28.21698c2.212952,-2.572021 4.326965,-4.901001 4.695984,-5.176025c0.544006,-0.406006 12.35199,-14.649963 17.463013,-21.065979c6.549988,-8.222992 19.146973,-32.009003 24.59198,-46.43399c1.244995,-3.300018 3.064026,-8.024994 4.041016,-10.5c0.97699,-2.475006 2.098999,-6.300018 2.493958,-8.5c0.394043,-2.200012 1.119019,-4.511017 1.612,-5.134003c0.493042,-0.623993 1.535034,-4.449005 2.315002,-8.5c0.781006,-4.052002 2.108032,-10.313019 2.949036,-13.912994c1.563965,-6.697998 1.947998,-10.505005 3.169006,-31.453003c0.949951,-16.287018 0.941956,-16.955994 -0.405029,-33.674011c-1.659973,-20.600006 -6.867004,-42.104004 -14.609985,-60.325989c-4.811035,-11.322998 -13.692993,-29.310013 -16.43103,-33.271011c-2.980957,-4.312988 -10.143005,-16.123993 -10.143005,-16.725998c0,-1.979004 -18.203979,-23.599991 -29,-34.445999c-8.074951,-8.110992 -26.894958,-23.140991 -31.741974,-25.350006c-1.242004,-0.564987 -2.257996,-1.405991 -2.257996,-1.867996c0,-0.46199 -0.480011,-0.838989 -1.067017,-0.838989c-0.586975,0 -2.498993,-1.087006 -4.25,-2.414001c-3.083984,-2.339005 -21.047974,-11.606003 -29.182983,-15.056c-18.160004,-7.700012 -43.545013,-15.042999 -60,-17.358002c-42.112,-5.922005 -84.497009,-0.814011 -120.368988,14.507996c-35.556015,15.186996 -56.709015,29.156998 -81.189011,53.621002c-14.369003,14.358994 -30.306,35.472992 -35.596008,47.160004c-0.756989,1.67099 -1.802994,3.713989 -2.32399,4.539001c-2.003998,3.168991 -11.02301,22.957001 -11.028,24.195984c-0.003998,0.71701 -0.623001,2.485016 -1.376999,3.929016c-1.749008,3.352997 -7.282013,20.839996 -8.660004,27.375c-0.580002,2.75 -1.460999,6.799988 -1.958008,9c-2.914001,12.90799 -5.209991,36.518982 -4.668991,48c0.310989,6.600006 0.779999,13.125 1.041,14.5c0.261993,1.375 0.769989,5.649994 1.128998,9.5c0.916992,9.811981 5.319992,33.182007 7.599991,40.334991c6.090012,19.10199 12.693008,33.971008 23.125,52.071014c16.003006,27.764984 27.27301,41.488983 48.46701,59.019012c12.354996,10.219971 10.462997,8.771973 20.106003,15.375977c26.013,17.815002 59.846008,31.89502 88.201996,36.705017c4.125,0.699951 9.993988,1.822998 13.041992,2.495972c3.048004,0.673035 10.014008,1.312988 15.480011,1.424011c5.464996,0.109985 10.171997,0.445007 10.458008,0.744019c0.950989,0.995972 32.379974,-0.679016 41.519989,-2.212036zm207.884003,-20.640015c2.263,-0.649963 5.309998,-2 6.77002,-3c1.459961,-1 3.100952,-1.817993 3.645996,-1.817993c0.544983,0 4.106995,-3.084961 7.914978,-6.855957c5.955994,-5.897034 8.791016,-9.989014 13.387024,-19.322021c0.493958,-1.002991 1.328003,-2.684998 1.854004,-3.739014c1.886963,-3.781982 3.277954,-15.447998 2.734985,-22.945007c-1.507019,-20.809967 -2.627014,-24.265991 -17.93103,-55.324982c-12.617981,-25.609009 -12.898987,-26.437988 -13.362976,-39.441986c-0.29303,-8.223022 -0.017029,-12.037018 1.057983,-14.610016c0.799988,-1.915985 1.677002,-4.708984 1.949036,-6.208984c0.482971,-2.661011 0.975952,-3.470001 5.095947,-8.365997c5.890015,-7.001007 17.058044,-9.26001 25.891052,-5.236023c5.375,2.447998 6.344971,3.637024 6.737,8.255005c0.359985,4.244995 -3.016052,9.795013 -5.959045,9.795013c-3.278992,0 -7.100952,-2.477997 -8.868958,-5.75c-1.944031,-3.600006 -3.440002,-3.925995 -8.436035,-1.838013c-3.98999,1.666992 -7.864014,8.653015 -7.864014,14.181c0,4.40802 3.936035,9.839996 8.209045,11.330017c10.19397,3.552979 24.519958,-2.634003 32.097961,-13.863007c0.906006,-1.34201 1.947998,-2.139008 2.31604,-1.77002c0.906982,0.906006 -3.994019,8.163025 -7.93103,11.745026c-4.151001,3.776001 -7.479004,5.339996 -17.533997,8.242981c-10.552979,3.046997 -12.224976,4.688995 -12.761963,12.533997c-0.396057,5.782013 -0.261047,6.216003 2.843994,9.187012c4.797974,4.589996 10.225952,7.161987 13.507996,6.402008c8.19397,-1.899017 20.536011,-13.52301 25.795959,-24.294006c1.626038,-3.32901 3.518005,-6.065002 4.205994,-6.079987c1.673035,-0.037018 1.747009,-0.271027 -2.394958,7.571991c-5.397034,10.221008 -8.364014,14.178986 -16.226013,21.648987c-9.856018,9.364014 -12.142029,13.26001 -12.336975,21.022003c-0.248047,9.891998 6.337952,21.759003 13.161987,23.71701c3.669983,1.052002 3.523987,1.304993 4.987,-8.665009c1.138,-7.743988 4.385986,-16.459991 10.554993,-28.321991c4.132019,-7.945007 7.981995,-16.535004 9.633972,-21.5c0.550049,-1.649994 1.405029,-3.757996 1.902039,-4.684998c3.505981,-6.542023 3.591003,-30.830017 0.132996,-37.973999c-1.19104,-2.460022 -2.165039,-4.912018 -2.165039,-5.447998c0,-0.536011 -3.037964,-4.201019 -6.75,-8.14502c-5.428955,-5.766998 -8.316956,-7.898987 -14.75,-10.885986c-6.720947,-3.119995 -9.039001,-3.705994 -14.5,-3.662994c-16.564941,0.130981 -31.823975,9.298981 -38.121948,22.905975c-3.616028,7.813019 -4.917053,13.481018 -5.580994,24.315002c-0.888,14.488007 2.41095,28.162018 11.358948,47.080017c1.95105,4.125 4.583008,10.199982 5.848999,13.5c1.265015,3.299988 3.098999,7.799988 4.075012,10c0.975037,2.199982 1.869995,4.449982 1.987,5c0.118042,0.549988 0.962036,3.854004 1.875,7.342987c2.130005,8.136017 2.006042,27.455994 -0.218994,34.080017c-1.973022,5.873962 -8.942017,16.539001 -13.877991,21.237c-11.197998,10.659973 -31.345032,6.344971 -31.345032,-6.713013c0,-5.916016 0.696045,-7.252014 4.896057,-9.39502c6.760986,-3.448975 12.103943,-0.309998 12.103943,7.111023c0,2.044983 0.420044,3.978027 0.934021,4.296021c0.514038,0.316956 2.73999,-0.145996 4.947998,-1.028992c6.728027,-2.692017 11.408997,-10.759033 10.522034,-18.131042c-0.764038,-6.338989 -1.304016,-7.102966 -6.993042,-9.885986c-4.513977,-2.208984 -6.348999,-2.580994 -10.378967,-2.104004c-5.328003,0.630981 -11.942017,3.599976 -15.135986,6.794983c-1.112,1.111023 -2.52002,1.854004 -3.129028,1.651001c-1.89801,-0.631958 10.140991,-9.651001 14.549011,-10.89801c2.300964,-0.651001 7.333984,-1.110962 11.18396,-1.020996c11.331055,0.265015 12.772034,-0.807983 13.875,-10.335968c0.255005,-2.200012 0.777039,-5.238007 1.161011,-6.75c0.505005,-1.994995 0.322021,-2.756012 -0.669983,-2.772003c-0.750977,-0.011993 -2.59198,-1.755005 -4.090027,-3.873993c-2.754944,-3.895996 -7.958984,-7.104004 -11.521973,-7.104004c-3.273987,0 -13.981018,7.631989 -23.090027,16.458984c-4.758972,4.612 -8.822998,8.214996 -9.029968,8.007996c-0.208008,-0.207001 0.770996,-2.335999 2.174011,-4.72998c3.067993,-5.235016 14.122986,-16.187012 21.636963,-21.434998c2.994019,-2.091003 6.265015,-5.208008 7.267029,-6.925018c2.323975,-3.980988 2.958008,-12.84198 1.27002,-17.751984c-1.215027,-3.53302 -9.419006,-12.625 -11.393005,-12.625c-1.175049,0 -2.08905,2.563995 -2.08905,5.858978c0,2.686005 -4.398987,12.082001 -8.06897,17.237c-1.062012,1.492004 -1.93103,2.98703 -1.93103,3.323029c0,0.335999 -2.179993,3.641998 -4.843994,7.345978c-2.664001,3.70401 -5.69696,8.309998 -6.738953,10.235016c-1.042053,1.924988 -2.429016,4.174988 -3.081055,5c-5.576965,7.053986 -11.095947,25.514984 -10.086975,33.740997c0.98999,8.072998 3.937012,18.927002 6.531006,24.054993c4.625,9.143005 14.554016,17.849976 23.619019,20.710999c5.268982,1.664001 17.687988,1.832031 22.984985,0.310974zm-460.206024,-8.702942c7.772003,-3.863037 16.872009,-12.52301 20.044006,-19.074036c2.968002,-6.130981 4.065002,-12.050964 4.084991,-22.041016c0.021011,-10.526978 -1.108994,-15.33197 -5.153,-21.902985c-1.735001,-2.819977 -3.153992,-5.313995 -3.153992,-5.541992c0,-0.227997 -1.800003,-3.123993 -4,-6.436005c-2.199997,-3.311981 -4,-6.32901 -4,-6.70401c0,-0.375977 -2.904007,-5.029999 -6.451996,-10.342987c-3.549011,-5.313995 -7.709,-12.903992 -9.246002,-16.867004c-1.557007,-4.014008 -3.393005,-7.204987 -4.147003,-7.204987c-0.744995,0 -3.313995,2.074982 -5.710007,4.612c-3.416,3.615997 -4.492996,5.613007 -4.98999,9.25c-0.348007,2.549988 -0.771011,5.557007 -0.939995,6.681c-0.672012,4.462982 1.998993,7.858002 9.35099,11.885986c7.882996,4.317993 18.507004,13.46402 20.809998,17.914001c0.809006,1.563019 1.283005,3.029999 1.054001,3.26001c-0.229996,0.230011 -3.522003,-2.537018 -7.315994,-6.149017c-10.772003,-10.253998 -23.514999,-15.519989 -30.577995,-12.633972c-3.086006,1.260986 -10.124016,10.120972 -9.096016,11.450989c0.522011,0.675995 1.504005,3.253998 2.181,5.729004c1.707016,6.235992 4.149017,7.740997 13.136017,8.095978c7.206985,0.285004 8.944992,0.679016 15.537994,3.518005c5.097992,2.195007 10.785995,7.963989 9.934998,10.075989c-0.686005,1.699036 -0.779007,1.687012 -1.516998,-0.190002c-2.341995,-5.950989 -20.270996,-12.253967 -27.278,-9.589966c-2.865005,1.088989 -7.548004,8.323975 -8.703011,13.445007c-0.950989,4.218994 3.015007,14.304993 6.707016,17.055969c1.410995,1.051025 4.745995,2.121033 7.410995,2.377014l4.846001,0.466003l-0.594009,-5.877014c-0.51799,-5.133972 -0.319,-6.166992 1.580002,-8.169983c2.949997,-3.109985 9.111008,-2.569031 12.804001,1.123962c6.794006,6.794006 -0.341003,18.420044 -12.078003,19.680054c-8.371986,0.898987 -14.012985,-1.289001 -20.407997,-7.914001c-6.28299,-6.509033 -9.010994,-12.483032 -10.371994,-22.713013c-2.156006,-16.197998 -0.315994,-24.703003 10.158005,-46.950012c1.051994,-2.235992 1.913994,-4.519012 1.913994,-5.072998c0,-0.553986 1.290001,-3.674011 2.867004,-6.93399c9.156998,-18.928009 11.130997,-24.071014 13.728989,-35.757996c1.411011,-6.348022 1.531998,-8.715027 0.638,-12.5c-0.606003,-2.568024 -1.389999,-6.425018 -1.741989,-8.571014c-0.352005,-2.145996 -2.011002,-7.691986 -3.687004,-12.324005c-5.605995,-15.492981 -16.470993,-24.298004 -32.135704,-26.044983c-21.15229,-2.358002 -33.299393,4.974976 -44.192291,26.679993c-1.912502,3.811005 -3.477303,7.790009 -3.477303,8.842987c0,1.053009 -0.303299,2.21701 -0.673901,2.588013c-0.807999,0.807983 -1.104809,3.803009 -1.315899,13.277008c-0.2341,10.510986 2.265999,19.106995 10.43639,35.882996c8.395809,17.238007 12.109013,27.098999 14.975513,39.772003c0.528595,2.336975 0.919991,2.61499 2.494194,1.772003c2.7341,-1.463013 9.654205,-8.212006 10.9048,-10.636017c1.815704,-3.518005 4.148895,-10.790985 4.164291,-12.980011c0.028114,-3.998993 -3.045998,-10.990997 -6.568596,-14.940979c-15.468803,-17.341003 -18.922203,-21.959015 -19.962193,-26.694c-0.334702,-1.524017 -1.023911,-3.027008 -1.531601,-3.341003c-1.206409,-0.746002 -1.198509,-4.451996 0.00959,-4.451996c0.512909,0 1.24041,1.011993 1.616711,2.25c2.0784,6.834991 15.101791,23.242981 22.123589,27.871979c3.834213,2.528015 6.3078,2.355011 10.382805,-0.727997c1.89431,-1.43399 4.906799,-3.23999 6.694595,-4.013977l3.25,-1.407013l0,-7.522003c0,-10.049988 -1.248985,-11.845001 -10.065491,-14.471008c-9.729095,-2.896973 -18.429695,-7.461975 -20.938705,-10.985992c-3.403091,-4.778992 -1.895401,-5.321991 2.678299,-0.964996c4.675606,4.454987 12.931702,8.971008 16.399811,8.971008c5.484299,0 12.3311,-4.065002 14.7771,-8.77301c1.270996,-2.446991 -0.108009,-11.209991 -2.282005,-14.502991c-3.143005,-4.76001 -10.569305,-8.834991 -10.569305,-5.800995c0,0.507996 -1.164993,2.307983 -2.588898,4c-3.850296,4.575989 -8.471001,4.334991 -11.378395,-0.59201c-2.559296,-4.338013 -2.142807,-7.057007 1.748093,-11.411987c2.323402,-2.601013 3.657211,-3.149017 8.792801,-3.614014c7.053406,-0.640015 9.940697,0.515991 16.016701,6.412994c5.658005,5.490997 9.919998,17.188995 9.756004,26.782013c-0.190994,11.201996 -3.466995,22.507996 -11.019005,38.031006c-3.75499,7.71698 -8.13549,18.066986 -9.73439,23c-1.5989,4.932983 -3.292404,9.868988 -3.763199,10.968994c-1.405701,3.28299 -5.813301,25.713989 -5.8218,29.626984c-0.011711,5.346985 2.934189,17.583008 5.747688,23.872986c4.721512,10.555054 5.2798,11.530029 9.251701,16.162048c6.969986,8.127991 18.250999,11.872986 34.493004,11.453979c5.694,-0.14801 8.246002,-0.801025 13.677994,-3.500977zm-79.978287,-157.315033c-1.411217,-1.411987 -1.568306,-2.799988 -0.316711,-2.799988c0.485901,0 1.118805,0.899994 1.406395,2c0.610405,2.333984 0.514816,2.403992 -1.089684,0.799988zm475.222336,136.634979c4.215942,-4.216003 -0.227051,-12.434998 -6.722046,-12.434998c-5.880981,0 -8.687012,5.237 -5.888,10.991028c2.54303,5.227966 8.179993,5.874023 12.610046,1.44397zm-352.783005,-2.550964c0.912003,-0.757019 1.348999,-2.559021 1.161011,-4.791992c-0.233002,-2.770996 -0.924011,-3.876038 -3.06601,-4.89801c-6.756012,-3.221985 -12.957001,4.586975 -7.996002,10.06897c1.903992,2.103027 7.151993,1.902039 9.901001,-0.378967zm-143.291595,-159.450012c4.3736,-6.299988 10.936901,-11.817993 20.251999,-17.027008c5.653999,-3.161987 7.408813,-5.406982 4.226013,-5.406982c-0.581024,0 -4.422508,-1.576996 -8.536613,-3.503021c-7.777897,-3.642975 -19.324699,-13.809998 -21.182796,-18.651978l-0.900303,-2.345001l-1.188797,3c-0.6539,1.649994 -1.208103,5.475006 -1.231503,8.5c-0.023499,3.024994 -0.388298,5.949982 -0.810898,6.5c-0.422501,0.549988 -1.3269,2.881989 -2.009701,5.182983c-1.1245,3.787994 -1.034302,4.533997 0.957199,7.908997c1.734303,2.940002 2.072601,4.65802 1.6012,8.134003c-0.460999,3.399017 -0.091499,5.419006 1.616699,8.839996c1.217903,2.438019 2.472103,4.428009 2.787102,4.422028c0.314999,-0.007019 2.304199,-2.506012 4.420399,-5.554016zm643.342606,-6.10199c-0.434998,-4.253998 -0.188965,-5.476013 1.391052,-6.904999c2.48999,-2.253998 2.435974,-6.493011 -0.14801,-11.558014c-1.639038,-3.212982 -1.863037,-4.632996 -1.080994,-6.875c0.540955,-1.553009 0.838989,-2.975006 0.66095,-3.158997c-0.177002,-0.184998 -0.60199,-2.109009 -0.942993,-4.277008c-0.341003,-2.167999 -0.841003,-4.161987 -1.109985,-4.431976c-0.27002,-0.27002 -2.395996,1.449982 -4.724976,3.820984c-5.89502,6.002014 -13.13501,11.312012 -20.485046,15.023987c-3.437988,1.736023 -6.25,3.340027 -6.25,3.563019c0,0.223999 2.453003,1.567993 5.452026,2.985992c6.057983,2.865997 19.218018,14.591003 22.700012,20.225006l2.247986,3.639008l1.410034,-3.442017c0.899963,-2.197998 1.217957,-5.311005 0.879944,-8.609985zm-572.797012,-7.332001c0.401016,0 1.751007,-0.951019 2.998016,-2.114014c5.565994,-5.184998 -3.075012,-14.303986 -9.131012,-9.635986c-1.681999,1.29599 -2.079994,2.673004 -1.878998,6.5c0.152,2.880981 3.817993,6.578979 5.778,5.826996c0.827003,-0.317993 1.833,-0.576996 2.233994,-0.576996zm496.472061,-2.072998c3.091003,-2.431 3.282959,-4.570007 0.690979,-7.677002c-2.632996,-3.157013 -7.495972,-3.035004 -9.643005,0.242004c-1.882019,2.871002 -1.197998,7.507996 1.106018,7.507996c0.813965,0 1.480957,0.449982 1.480957,1c0,1.707001 3.602051,1.100006 6.365051,-1.072998zm-519.101646,-11.968018c3.097,-0.572998 7.79261,-2.238983 10.433617,-3.703979c7.310974,-4.053009 15.905983,-13.173004 19.275993,-20.45401c4.827995,-10.431 6.116997,-27.516998 3.002007,-39.800995c-0.488007,-1.925018 -1.123016,-4.850006 -1.411026,-6.5c-1.542,-8.833008 -4.404991,-16.886993 -13.50798,-38c-0.474998,-1.100006 -2.230011,-6.050003 -3.902,-11c-6.969009,-20.63501 -7.314995,-23.991013 -4.154999,-40.266006c2.695999,-13.884995 6.715996,-20.167007 16.500999,-25.783997c4.257004,-2.443008 6.112976,-2.876007 12.500015,-2.910004c5.669983,-0.031006 8.15799,0.406006 10.19899,1.791c2.502991,1.699005 5.05899,6.858994 5.38501,10.873001c0.197983,2.434006 -4.60202,7.5 -7.774017,8.205002c-3.835999,0.852997 -8.154999,-2.996002 -8.036011,-7.162003c0.147018,-5.173996 -4.131989,-5.352005 -10.582985,-0.440002c-4.498001,3.425995 -6.191002,7.098007 -6.191002,13.431c0,10.149002 7.116989,14.785004 19.500015,12.703003c8.062973,-1.356003 10.24498,-2.473999 15.334961,-7.856995c4.259033,-4.504013 4.32402,-4.532013 3.681,-1.584c-0.35997,1.649994 -2.085999,4.501999 -3.834961,6.33699c-5.338028,5.600006 -9.722,7.235001 -21.809006,8.128998c-6.479004,0.480011 -11.543007,1.346008 -12.498009,2.138c-0.881989,0.73201 -3.057999,4.376007 -4.835999,8.097l-3.232002,6.766006l5.139,3.539993c6.105003,4.20401 11.502007,5.880005 15.869987,4.929001c8.775009,-1.910004 21.916,-12.203995 28.278,-22.149994c1.874008,-2.929001 3.407028,-5.766998 3.407028,-6.306c0,-0.539001 0.449982,-0.979996 1,-0.979996c0.549973,0 1,-1.152008 1,-2.559006c0,-1.408005 0.411972,-2.304001 0.916962,-1.992996c1.34201,0.830002 -0.608963,7.035995 -4.228989,13.449997c-4.48999,7.955002 -14.875,18.569 -21.03299,21.496994c-7.02301,3.337997 -11.621979,8.013 -11.779022,11.973007c-0.495956,12.522995 0.642029,16.651993 6.190002,22.459c3.507019,3.669983 3.947037,3.493011 5.794998,-2.326996c1.519012,-4.782013 8.027039,-18.168015 10.139038,-20.853012c0.824982,-1.047989 2.567963,-3.085999 3.873001,-4.526993c2.679962,-2.959 15.084,-21.768997 15.893982,-24.100006c0.289978,-0.835999 1.440979,-3.545013 2.557007,-6.019989c2.959991,-6.564011 2.834015,-22.035004 -0.253006,-31c-4.766022,-13.84201 -10.576004,-21.07901 -20.570984,-25.625c-5.322037,-2.421005 -7.243027,-2.737 -17,-2.802002c-15.530014,-0.104004 -22.877014,2.893997 -33.754013,13.771988c-9.199501,9.19899 -14.901413,27.596008 -14.150101,45.655014c0.386787,9.29599 2.741104,21.501999 4.972588,25.779999c0.780411,1.495987 1.421715,3.181992 1.42511,3.746994c0.003403,0.565002 2.735291,7.089996 6.071404,14.500015c12.061996,26.796997 16.527,43.106995 14.931999,54.54599c-1.971001,14.125 -7.858002,22.44101 -18.192902,25.699005c-13.011299,4.10199 -21.804298,0.535004 -21.804298,-8.845001c0,-3.598022 0.4851,-4.559998 3.433205,-6.809021c5.173393,-3.945984 9.696693,-3.241974 14.305206,2.226013c2.600594,3.084991 3.975487,2.606995 8.415787,-2.924988c5.541,-6.903015 3.829002,-20.335022 -2.88961,-22.677002c-5.957184,-2.077026 -16.8759,2.312988 -25.014587,10.056976c-4.643196,4.419006 -4.367401,0.943024 0.3386,-4.265991c3.924599,-4.343994 11.606499,-8.39801 20.860802,-11.009003c7.389786,-2.083984 9.193802,-4.427002 9.864799,-12.811005c0.476997,-5.967987 0.367996,-6.371979 -2.156013,-7.957001c-1.46199,-0.918976 -3.863586,-2.645996 -5.3368,-3.838989c-3.722191,-3.013 -9.077301,-3.868011 -12.543587,-2.002991c-6.770004,3.643005 -19.147324,17.703003 -22.650902,25.731995c-2.189999,5.018005 -2.055298,0.442993 0.151501,-5.145996c3.468998,-8.786011 6.454388,-13.290009 14.148304,-21.346008c4.283897,-4.484985 8.302895,-9.136993 8.931107,-10.339005c1.493286,-2.855011 1.389793,-16.060989 -0.152924,-19.505997c-1.456085,-3.252014 -8.272186,-8.80899 -10.803688,-8.80899c-1.306,0 -2.234406,1.347977 -3.270302,4.75c-0.795609,2.612 -2.096596,6.324997 -2.891098,8.25c-2.326111,5.635986 -3.058701,7.467987 -3.1987,8c-0.072311,0.274994 -1.130898,2.299988 -2.352398,4.5c-10.291412,18.535004 -12.461201,22.981995 -14.638802,30c-3.408298,10.983978 -5.271,28.539001 -3.8377,36.169006c2.671902,14.223999 11.468689,26.233002 23.057789,31.477997c10.163689,4.598999 19.031898,5.746002 29.493599,3.811981zm561.175621,-1.556c3.265991,-0.802002 7.791992,-2.630981 10.05603,-4.063995c8.376953,-5.299011 17.781982,-21.93399 18.816956,-33.279999c0.653015,-7.162994 -0.872009,-22.826996 -2.63501,-27.05899c-0.343994,-0.825012 -1.084961,-3.619995 -1.645996,-6.210999c-0.970947,-4.473999 -3.425964,-10.289001 -6.666992,-15.789001c-0.809998,-1.375 -2.117004,-3.932007 -2.903992,-5.682007c-0.786011,-1.75 -1.874023,-3.455994 -2.416992,-3.791c-2.957031,-1.828003 -8.04303,-19.606003 -8.04303,-28.115005c0,-3.838989 -1.368958,-4.312988 -5.799988,-2.006989c-9.739014,5.067001 -14.472961,20.653992 -9.30896,30.648987c2.617004,5.06601 8.875,13.789001 13.59198,18.946014c3.921021,4.28598 9.284973,13.092987 11.088989,18.203979c1.692017,4.795013 1.203979,4.808014 -1.679016,0.046021c-2.957947,-4.886017 -9.737976,-13.709015 -14.409973,-18.75c-7.471985,-8.065002 -11.51001,-9.205994 -17.697998,-5c-2.023987,1.375 -4.117004,2.5 -4.653015,2.5c-1.45697,0 -2.57196,12.738007 -1.349976,15.421997c1.003967,2.201996 1.990967,2.600006 13.717957,5.531006c6.787048,1.695984 17.477051,11.747986 17.493042,16.449982c0.006958,2 -0.752991,1.359009 -5.848022,-4.936005c-4.026001,-4.972992 -14.612976,-9.164978 -20.404968,-8.077972c-5.498047,1.030975 -12.541992,6.234985 -13.593018,10.039978c-1.911011,6.919006 0.997009,14.197998 7.531006,18.848999c5.412964,3.854004 9.32196,3.290009 9.32196,-1.345001c0,-3.757996 4.189026,-7.932983 7.959045,-7.932983c4.638977,0 10.852966,8.626984 9.653992,13.402985c-0.945007,3.766022 -6.888,9.238007 -10.835999,9.979004c-10.466003,1.963013 -24.376038,-5.613007 -29.26001,-15.937988c-2.34198,-4.949005 -2.653992,-6.809998 -2.60199,-15.526001c0.031006,-5.446014 0.469971,-10.692993 0.973999,-11.660004c0.503967,-0.96701 1.487,-3.78299 2.184998,-6.257996c0.697998,-2.475006 3.921021,-10.083008 7.161011,-16.907013c15.094971,-31.789993 18.768005,-43.589996 19.38501,-62.270996c0.232971,-7.061005 -0.049011,-12.792999 -0.713013,-14.5c-0.605042,-1.552002 -1.718018,-5.154999 -2.473022,-8.007004c-2.20697,-8.322998 -7.432983,-18.365997 -11.862,-22.79599c-11.70697,-11.706009 -30.257996,-16.291 -43.041992,-10.636002c-8.822998,3.903 -20.515991,14.666 -24.768005,22.796997c-3.935974,7.526993 -7.427002,31.173004 -4.838989,32.772003c0.507996,0.313995 1.234009,1.987 1.614014,3.718994c0.672974,3.063995 3.695007,8.108002 10.980957,18.32901c1.960999,2.75 6.032043,9.049988 9.046997,14c3.016052,4.949997 5.911011,9.674988 6.434021,10.5c0.987976,1.557983 3.775024,7.776001 6.385986,14.25c0.832031,2.061981 2.176025,3.75 2.987,3.75c4.671997,0 13.801025,-13.815002 13.994019,-21.177002c0.125,-4.771011 -2.789001,-7.932999 -10.807007,-11.725006c-8.132019,-3.845993 -15.320007,-9.436005 -20.744995,-16.130997c-11.276001,-13.916 -9.630005,-14.604004 3.505981,-1.466995c5.225037,5.224991 10.033997,9.5 10.686035,9.5c0.651978,0 2.424988,0.881989 3.938965,1.960999c1.515015,1.078995 4.721008,2.403 7.124023,2.942993c5.195007,1.167007 8.153992,0.003006 14.786011,-5.817993c3.802002,-3.335999 4.214966,-4.085999 3.25,-5.889008c-0.608032,-1.136002 -1.105042,-4.740005 -1.105042,-8.009003c0,-4.024994 -0.477966,-6.339996 -1.478943,-7.17099c-0.907043,-0.753006 -5.515015,-1.330002 -11.91803,-1.493011c-10.741028,-0.273987 -15.812012,-1.791992 -21.229004,-6.353989c-2.098999,-1.766998 -5.929993,-8.169998 -4.888977,-8.169998c0.295959,0 3.119995,1.730988 6.276001,3.847c11.459961,7.681992 19.865967,8.835999 25.60498,3.513992c4.491028,-4.164993 7.40802,-14.147003 4.633972,-15.860992c-0.549988,-0.340012 -1,-1.66301 -1,-2.94101c0,-2.845001 -5.807983,-7.55899 -9.311951,-7.55899c-1.78302,0 -2.788025,0.824997 -3.708008,3.046997c-1.252014,3.024002 -5.419983,5.953003 -8.470032,5.953003c-2.640991,0 -9.369995,-3.869003 -10.542969,-6.062012c-2.885986,-5.390991 3.291016,-13.149994 11.440979,-14.371994c8.588013,-1.287994 20.195007,3.854004 25.492981,11.293991c6.443054,9.049011 8.747009,18.759003 8.390015,35.361008c-0.171997,7.975998 -0.782959,11.386993 -3.403992,19c-1.757996,5.102997 -3.575989,9.429001 -4.041992,9.612c-0.465027,0.182999 -0.845032,1.007996 -0.845032,1.832001c0,1.423004 -2.607971,7.770996 -9.174988,22.335007c-4.372986,9.696991 -4.450012,9.904999 -6.648987,18c-4.69397,17.270996 -5.221008,27.261993 -2.044983,38.716003c3.844971,13.868988 9.390015,21.389984 20.633972,27.987976c7.244995,4.252014 21.450012,4.948029 34.674011,1.699005zm-114.268005,-160.057999c3.927979,-3.554993 0.664978,-11.344986 -4.752991,-11.344986c-5.463989,0 -8.294983,6.020996 -5.177979,11.013c1.557007,2.491989 7.330994,2.684998 9.930969,0.331985zm-349.697006,-2.29599c2.026001,-3.917999 1.923981,-5.651001 -0.473999,-8.048996c-3.00502,-3.005005 -7.43602,-2.601013 -9.932022,0.903992c-2.569,3.606995 -2.567978,4.190002 0.004013,7.460999c3.042007,3.867004 8.322006,3.706009 10.402008,-0.315994zm348.162033,-19.684998c15.07196,-5.052002 22.677002,-12.029007 27.93396,-25.629013c3.484009,-9.010986 3.496033,-18.856995 0.033997,-28.054993c-1.335999,-3.548996 -3.255981,-7.474998 -4.266968,-8.723c-9.515015,-11.757202 -16.442017,-16.684196 -28.901978,-20.557999c-7.692017,-2.391602 -10.535034,-2.767204 -20.435059,-2.699898c-12.43399,0.084496 -14.407074,0.304298 -23.5,2.617798c-11.291077,2.872597 -16.01001,4.476601 -27,9.176895c-12.182037,5.210205 -20.667999,8.3302 -24.486053,9.004204c-1.382935,0.242996 -6.944946,1.354996 -12.361023,2.470001c-15.752991,3.241997 -25.733978,0.950996 -34.634979,-7.949799c-6.129944,-6.1306 -7.632935,-16.061806 -3.608002,-23.845802c1.754059,-3.390999 6.763,-5.163002 11.264984,-3.9851c3.800018,0.994202 5.788086,5.671501 4.869019,11.454201c-0.668945,4.210098 -1.882019,6.013199 -4.63501,6.886696c-4.487,1.4244 0.053009,6.296303 7.591064,8.143906c8.895935,2.180595 15.849945,0.278 18.743011,-5.127602c2.556915,-4.776802 0.211914,-15.555405 -4.470001,-20.544899c-2.863068,-3.051804 -5.77301,-7.180405 -5.77301,-8.191101c0,-1.278702 3.371002,0.365601 6.329926,3.0877c3.058075,2.8125 6.873077,10.195198 8.580017,16.603401c0.58606,2.199997 2.083069,5.225899 3.328003,6.724297c2.367065,2.851402 4.058044,3.193199 14.417999,2.914398c4.987,-0.134201 5.274048,-0.302696 8.75,-5.140999c1.97699,-2.751297 3.594055,-5.735695 3.594055,-6.631996c0,-6.028702 -16.377991,-21.143303 -27.082001,-24.992203c-5.150055,-1.8521 -7.740997,-3.883701 -6.515991,-5.1092c1.096985,-1.096802 14.666992,3.830399 19.597992,7.115601c5.178009,3.450001 15.645935,13.928902 16.451935,16.4692c0.837067,2.636597 5.470001,4.849396 11.548065,5.514801c4.846008,0.530602 6.248993,0.2267 11.799988,-2.555901c5.759979,-2.887604 12.200012,-8.575203 12.200012,-10.775398c0,-1.152702 -1.916077,-1.711906 -10.424011,-3.043201c-6.069977,-0.949703 -16.141998,-4.351902 -17.575989,-5.936802c-0.275055,-0.303902 -2.075012,-1.3298 -4,-2.2798c-1.924988,-0.949898 -5.525055,-2.938698 -8,-4.419498c-6.567047,-3.928802 -14.067047,-7.530899 -17.5,-8.4044c-1.650055,-0.4198 -6.600067,-1.731201 -11,-2.914402c-10.838043,-2.914101 -23.084991,-2.910099 -30.890076,0.010101c-5.940979,2.2229 -14.616913,8.7742 -20.501923,15.482201c-10.707001,12.203503 -11.845001,30.513798 -2.853058,45.910603c4.807068,8.228996 7.202057,10.601997 15.251068,15.102997c15.302979,8.557999 30.207001,8.443001 62.993988,-0.487c3.799988,-1.036003 6.315002,-2.052002 15,-6.063004c10.152008,-4.688995 18.166992,-7.603996 27.644989,-10.053497c11.043945,-2.854202 28.12204,-2.337898 37.355011,1.129501c15.921021,5.978996 24.680054,21.586998 20.307007,36.184006c-2.342957,7.819992 -10.259949,12.237991 -17.432007,9.725998c-3.339966,-1.169998 -7.375,-6.578003 -7.375,-9.884003c0,-5.501999 5.358032,-10.492004 11.335999,-10.557999c2.690002,-0.029015 3.21106,-0.442001 3.478027,-2.759003c0.242004,-2.098999 -0.760986,-3.873001 -4.36499,-7.725998c-5.059998,-5.410004 -8.734009,-6.781006 -15.009033,-5.604004c-3.032959,0.569 -3.846985,1.33699 -5.5,5.194c-2.58197,6.023003 -2.445984,10.555 0.593018,19.865997c1.393005,4.268997 2.289001,8.005997 1.98999,8.305008c-1.005005,1.00499 -3.432983,-3.261002 -5.58197,-9.809998c-1.789001,-5.453003 -2.023987,-7.806007 -1.460022,-14.600006l0.673035,-8.098999l-3.478027,-1.651001c-1.913025,-0.908012 -4.998016,-1.650002 -6.855103,-1.650002c-1.856934,0 -4.313934,-0.656998 -5.45993,-1.459999c-1.944,-1.361 -2.462067,-1.107002 -7.721985,3.788002c-4.703064,4.376999 -5.639008,5.808998 -5.639008,8.625c0,3.736 6.238953,16.019997 11.451935,22.547005c3.933075,4.923996 4.997009,7.5 3.097076,7.5c-1.318054,0 -9.71402,-10.703003 -12.542999,-15.989014c-0.72702,-1.357986 -1.813049,-2.987 -2.414001,-3.617996c-0.601013,-0.632004 -1.766998,-2.153999 -2.59201,-3.381996c-0.825012,-1.229012 -3.265991,-3.363998 -5.424988,-4.746002c-3.39502,-2.172997 -4.71106,-2.44001 -9.751068,-1.983009c-7.110931,0.645012 -13.791931,4.305 -17.311981,9.485016c-1.382019,2.03299 -2.511963,4.187988 -2.511963,4.787994c0,0.600006 2.752991,1.604004 6.118988,2.229996c8.020935,1.490997 16.928955,5.799011 24.47702,11.837997c12.437988,9.949005 21.278992,16.601013 24.052002,18.095001c12.973022,6.991013 22.981995,8.005005 35.988037,3.646011zm-323.136032,-3.872009c8.942978,-3.082001 18.733978,-8.257004 33,-17.442993c20.445969,-13.164001 19.735977,-12.841003 30.749985,-13.972c3.428009,-0.352005 -6.893005,-11.394005 -12.735992,-13.625c-2.365021,-0.903 -6.64801,-1.712006 -9.516998,-1.797005c-5.061005,-0.151001 -5.352005,-0.005997 -9.748993,4.845001c-2.493011,2.75 -5.57402,6.646996 -6.846024,8.659004c-2.835999,4.485992 -12.82399,14.841003 -14.315979,14.841003c-1.943008,0 -1.17601,-1.388 4.840988,-8.749008c3.258011,-3.985992 7.108994,-9.669998 8.558014,-12.630997c3.242996,-6.627998 2.712997,-9.375 -3.069,-15.909004l-4.084,-4.615997l-4.916,1.457001c-8.618011,2.553001 -11.151001,4.385002 -12.284012,8.882996c-0.562988,2.235001 -1.230011,6.877007 -1.483002,10.315002c-0.661987,9.004005 -6.891006,19.204994 -13.991989,22.913002c-4.126007,2.153992 -4.643997,0.660004 -0.81102,-2.339996c1.807022,-1.414001 4.423019,-4.373001 5.813019,-6.576004c2.613983,-4.139999 6.27298,-13.959999 6.315994,-16.950005c0.126999,-8.813995 -13.481003,-13.206993 -23.224014,-7.497993c-3.020996,1.770996 -4.911987,3.723 -5.646988,5.830994c-1.496002,4.292 -1.437012,4.563004 1.146011,5.258003c1.237,0.333 3.337997,1.454002 4.667999,2.489998c1.957001,1.524002 2.386978,2.707001 2.25,6.188995c-0.434021,11.091003 -12.751022,12.439011 -18.834,2.060013c-7.042023,-12.017006 0.207001,-29.188004 15.67099,-37.120995c11.635986,-5.96801 29.78801,-5.569 45.99501,1.010986c11.324997,4.598999 25.455978,9.983002 26.200974,9.983002c0.451019,0 2.953003,0.952003 5.559998,2.115997c2.606018,1.164001 6.244019,2.780006 8.083008,3.592003c20.626007,9.098 42.518005,11.170998 55.872009,5.290001c13.332001,-5.871002 24.678009,-17.887001 27.807983,-29.449699c1.596008,-5.897301 1.662018,-7.590904 0.572998,-14.706604c-0.676971,-4.422997 -1.743988,-9.234398 -2.371979,-10.691986c-2.71701,-6.31501 -7.837006,-13.061611 -12.52002,-16.49931c-6.289001,-4.616802 -19.185974,-9.354301 -27.705994,-10.177502c-12.419006,-1.199799 -31.463989,3.480499 -50.998993,12.533501c-4.950012,2.2939 -9.674988,4.321301 -10.5,4.505398c-1.965988,0.438702 -10.693008,3.478603 -14.499985,5.0513c-1.650009,0.681503 -3.900009,1.399902 -5,1.596401c-3.16301,0.564812 -2.968002,4.726402 0.474991,10.147003c3.5,5.511398 7.167999,7.439697 15.781006,8.296295c8.615997,0.856903 12.046997,-1.059998 24.321991,-13.589798c10.079987,-10.2883 17.306,-15.4963 20.56601,-14.822201c0.931976,0.192501 -0.494019,1.814301 -3.787018,4.3088c-8.175995,6.192204 -15.98999,15.118999 -20.070007,22.927402c-1.467987,2.810699 -1.401001,3.109695 1.689026,7.5c1.770996,2.5149 3.478973,5.310898 3.797974,6.213295c0.485016,1.373215 1.692017,1.560204 7.402008,1.147003c9.984009,-0.722397 13.468994,-2.6894 14.897003,-8.409302c1.903992,-7.626701 6.407013,-15.696198 10.789001,-19.336395c2.257996,-1.874901 4.299011,-3.213905 4.536987,-2.9757c0.239014,0.238197 -1.177979,2.795799 -3.14798,5.683395c-6.484009,9.504005 -8.054016,13.368599 -7.485016,18.417801c1.037018,9.202904 8.682007,13.107903 19.190002,9.802299c9.77301,-3.073898 13.968018,-11.011696 7.294006,-13.801498c-3.71701,-1.553596 -5.21701,-3.173203 -6.037994,-6.518997c-1.080994,-4.401306 2.960999,-9.1493 7.787994,-9.1493c8.591003,0 12.428986,13.728897 6.925995,24.772896c-4.992004,10.016502 -17.118988,14.983505 -33.925995,13.893501c-10.473999,-0.679001 -15.45401,-2.204002 -40.5,-12.403503c-25.551987,-10.405594 -26.662994,-10.792595 -36.121994,-12.580299c-15.31601,-2.8946 -23.459,-3.086296 -32.761993,-0.771095c-10.52301,2.619202 -19.94101,7.226501 -26.112,12.7742c-2.639023,2.372894 -5.294022,4.314697 -5.901016,4.314697c-0.606995,0 -1.102982,0.844002 -1.102982,1.876999c0,1.033005 -0.614014,2.387001 -1.364014,3.009003c-0.75,0.623001 -2.406998,4.796997 -3.682999,9.277c-2.161011,7.590996 -2.23999,8.768997 -1.162003,17.306992c1.110992,8.794006 2.970001,14.964005 5.515015,18.299011c3.475983,4.556992 10.696976,11.006989 14.203979,12.688995c11.434006,5.483994 29.013,6.817993 39.990021,3.033997l0,0zm364.373032,-15.69899c6.765991,-2.393005 16.013977,-3.476013 23.126953,-2.707001c3.025024,0.325989 5.64502,0.483002 5.823059,0.347c0.516968,-0.394012 -8.131042,-8.827011 -10.253052,-9.998001c-1.224976,-0.67601 -2.015991,-2.314011 -2.165955,-4.481003c-0.296997,-4.289001 -5.141052,-8.954002 -9.298035,-8.954002c-1.573975,0 -3.442993,-0.700996 -4.153992,-1.557999c-1.648987,-1.987 -9.887024,-6.841003 -10.525024,-6.203003c-0.265991,0.265999 -0.020996,1.700005 0.545044,3.187004c1.622009,4.267998 1.291992,24.005005 -0.472046,28.227997c-1.954956,4.679001 -1.901001,5.734009 0.25,4.798996c0.962036,-0.417999 4.16803,-1.61499 7.123047,-2.659988zm-427.034012,-3.423004c-2.309021,-5.221008 -4.100021,-21.209999 -3.192001,-28.492004c0.86499,-6.931999 -0.932007,-7.084999 -7.062027,-0.601997c-4.442993,4.696999 -5.625992,5.437996 -7.969971,4.989998c-2.26001,-0.431999 -3.457001,0.207001 -6.684021,3.565002c-3.185997,3.315994 -3.930984,4.820999 -3.930984,7.942001c0,3.113998 -0.571014,4.272003 -2.984016,6.056c-2.960999,2.188995 -6.383995,7.468994 -5.448997,8.404999c0.267998,0.268005 2.388,0.119003 4.709999,-0.330002c7.825996,-1.514999 21.812019,-0.975006 27.223,1.050003c7.40802,2.772995 7.656021,2.653 5.33902,-2.584zm212.820999,-28.305c2.941986,-1.793999 3.104004,-2.179001 2.337982,-5.570999c-0.803986,-3.567001 -3.302979,-6.399002 -5.700989,-6.463005c-4.31601,-0.113998 -9.990997,6.207001 -8.837006,9.843002c0.503021,1.584 4.721008,3.693001 8.040009,4.019997c0.549988,0.054001 2.421997,-0.768997 4.160004,-1.828995zm0.247009,-54.065399c1.65799,-5.993103 7.195984,-14.286503 13.944977,-20.881905c4.906006,-4.7939 5.325012,-5.515499 3.835999,-6.604099c-1.036987,-0.758297 -3.582001,-1.038399 -6.707001,-0.738098c-3.846985,0.369499 -5.483978,0.078701 -6.931,-1.230801c-1.041992,-0.943001 -3.747986,-1.9631 -6.011993,-2.266899c-3.338989,-0.447802 -4.559998,-0.136803 -6.455994,1.644398c-1.605011,1.5079 -4.128998,2.3815 -8.049011,2.786102c-3.217987,0.3321 -5.923981,1.145 -6.199005,1.862198c-0.689972,1.797703 1.451019,5.4291 3.201019,5.4291c0.806,0 1.464996,0.4179 1.464996,0.928802c0,0.510799 1.61499,2.641697 3.589996,4.735298c4.026001,4.268902 10.058014,14.0858 11.027008,17.945904c0.792999,3.159096 1.690002,2.173996 3.290009,-3.610001z"/>
  </g>
  <text transform="matrix(14.208 0 0 14.8942 -4953.49 -4410.43)" xml:space="preserve" text-anchor="middle" font-family="Times New Roman" font-size="24" id="svg_1" y="328.47998" x="375.299011" stroke-width="0" stroke="#000000" fill="#000000">D</text>
 </g>
</svg>