<?xml version="1.0"?><svg width="816" height="1056" xmlns="http://www.w3.org/2000/svg">
 <title>Blue Clip Art Flower Letter A</title>
 <metadata id="metadata3234">image/svg+xml</metadata>
 <g>
  <title>Layer 1</title>
  <path id="path3806" fill="#ff0000" d="m379.231995,438.238007c-4.947998,59.790985 -42.054993,117.899017 -94.971008,147.139984c-49.64299,26.666016 -120.002991,7.234985 -142.939987,-43.802002c-17.760002,-45.789978 -1.084,-99.203979 31.337006,-134.612976c24.921997,-27.89502 61.806992,-39.041016 95.669998,-54.309021c-52.542999,6.674011 -108.279007,-3.798981 -149.380989,-36.10199c-25.146606,-18.311005 -49.979218,-45.781006 -48.931801,-78.404007c2.521896,-48.162003 53.3228,-87.487 102.657791,-79.883987c61.166992,8.834 108.195984,52.730988 146.56601,97.233994c-13.709015,-12.326996 -26.456024,-31.902008 -32.165009,-49.085999c-17.239014,-71.516998 23.303986,-151.591404 92.593994,-181.144503c14.575989,-7.0016 32.429993,-4.021999 45.109009,6.2656c33.388,24.9981 55.899994,65.22961 53.904999,106.496899c-5.164001,44.972 -28.438019,83.878006 -53.243011,121.502014c20.916016,-37.203018 48.735992,-69.001007 91.620026,-86.507019c54.713989,-22.551987 127.393005,-22.158997 169.765991,23.727005c27.050964,26.132004 21.464966,72.853989 -4.937988,97.456009c-29.676025,27.175995 -70.343994,37.065979 -108.054016,47.263977c-32.427979,10.299011 -72.386017,0.613007 -105.154022,0.244019c30.087006,1.46701 68.601044,1.872986 91.310028,17.447998c35.078979,24.277008 70.531982,58.820007 64.839966,104.410004c-6.958008,50.83902 -51.521973,106.730011 -109.201965,97.587006c-60.111023,-10.070007 -109.337006,-71.682007 -136.39502,-122.923004z"/>
  <path id="path3800" fill="#fdff08" d="m408.593994,258.317993c54.729004,26.609009 65.06601,110.112 19.688995,150.208008c-40.464996,40.191986 -116.997986,31.369995 -144.518982,-19.511993c-28.502014,-43.710022 -10.542023,-109.63501 37.591003,-131.458008c26.522003,-13.858994 59.825989,-13.082001 87.238983,0.761993z"/>
  <path id="path38" fill="#37dc11" d="m597.44397,630.723999c46.712036,197.572998 -116.719971,253.573975 -237.499969,314.536011c29.761993,-122.642029 7.635986,-274.468994 237.499969,-314.536011z"/>
  <path id="path3789" fill="#37dc11" d="m44.1586,654.333008c-4.001202,199.380981 188.997406,229.710999 309.436401,290.502014c-32.044006,-124.662048 -110.972,-288.395996 -309.436401,-290.502014z"/>
  <path id="path32" fill="#37dc11" d="m357.188995,948.02002c-48.677002,-295.855042 42.42099,-299.639038 21.386993,-511.959015c48.315002,142.533966 -35.292999,188.31601 -21.386993,511.959015z"/>
  <text id="svg_1" font-family="Arial" font-size="24" fill="#7f007f" stroke="#000000" stroke-width="0" text-anchor="middle" transform="matrix(9.17267 0 0 7.88614 -2674.7 -2234.64)" x="331.65896" y="333.34192" xml:space="preserve">A</text>
 </g>
</svg>