<?xml version="1.0" encoding="UTF-8" standalone="no"?>
<!-- Created with Inkscape (http://www.inkscape.org/) -->
<svg
   xmlns:dc="http://purl.org/dc/elements/1.1/"
   xmlns:cc="http://web.resource.org/cc/"
   xmlns:rdf="http://www.w3.org/1999/02/22-rdf-syntax-ns#"
   xmlns:svg="http://www.w3.org/2000/svg"
   xmlns="http://www.w3.org/2000/svg"
   xmlns:sodipodi="http://sodipodi.sourceforge.net/DTD/sodipodi-0.dtd"
   xmlns:inkscape="http://www.inkscape.org/namespaces/inkscape"
   width="480"
   height="540"
   id="svg2160"
   sodipodi:version="0.32"
   inkscape:version="0.45.1"
   sodipodi:docbase="C:\temp"
   sodipodi:docname="Italic_letter_a_and_bar.svg"
   inkscape:output_extension="org.inkscape.output.svg.inkscape"
   version="1.0">
  <defs
     id="defs2162" />
  <sodipodi:namedview
     id="base"
     pagecolor="#ffffff"
     bordercolor="#666666"
     borderopacity="1.0"
     inkscape:pageopacity="0.0"
     inkscape:pageshadow="2"
     inkscape:zoom="1.0833333"
     inkscape:cx="240"
     inkscape:cy="355.10692"
     inkscape:current-layer="layer1"
     showgrid="true"
     inkscape:grid-bbox="true"
     inkscape:document-units="px"
     inkscape:window-width="1024"
     inkscape:window-height="708"
     inkscape:window-x="-4"
     inkscape:window-y="-4"
     width="480px"
     height="540px" />
  <metadata
     id="metadata2165">
    <rdf:RDF>
      <cc:Work
         rdf:about="">
        <dc:format>image/svg+xml</dc:format>
        <dc:type
           rdf:resource="http://purl.org/dc/dcmitype/StillImage" />
      </cc:Work>
    </rdf:RDF>
  </metadata>
  <g
     id="layer1"
     inkscape:label="Layer 1"
     inkscape:groupmode="layer">
    <path
       style="font-size:963.01446533px;font-style:italic;font-variant:normal;font-weight:normal;font-stretch:normal;text-align:start;line-height:125%;writing-mode:lr-tb;text-anchor:start;fill:#000000;fill-opacity:1;stroke:none;stroke-width:1px;stroke-linecap:butt;stroke-linejoin:miter;stroke-opacity:1;font-family:Book Antiqua"
       d="M 456.24794,157.45971 C 482.60338,165.67688 449.71262,194.704 448.6094,211.60687 C 416.95954,287.36111 387.17676,364.18093 367.80987,443.78969 C 354.01437,464.82487 380.5654,487.50823 401.02172,472.64102 C 424.07307,464.16351 445.57498,452.38247 467.04408,440.80891 C 475.74028,453.49569 473.40909,462.49066 457.82219,466.90669 C 415.24142,490.00869 371.26195,512.63208 323.423,523.73657 C 301.00426,530.37666 269.81804,519.16483 278.00449,492.44773 C 281.36237,461.54363 294.17175,432.50024 304.13444,403.19171 C 308.15425,393.08369 323.11735,361.51526 302.66417,380.36807 C 249.82284,429.72814 189.93085,472.89254 123.85547,504.69763 C 97.510487,515.36494 70.629819,533.50942 40.629404,527.31359 C 14.101396,522.64029 10.905447,491.8615 8.9221947,470.78545 C 9.2533243,416.31321 29.660565,364.0667 52.543575,314.93937 C 68.755262,283.91539 85.64932,251.975 111.71042,227.44428 C 148.36262,197.85752 194.25956,181.7078 239.0493,167.10617 C 295.97785,151.70893 356.59777,155.83432 413.4929,169.06903 C 428.88373,171.50222 441.86529,160.91118 456.24794,157.45971 z M 369.31057,206.3645 C 313.51696,191.87336 253.01574,188.44266 197.3358,205.24466 C 168.57569,226.60225 153.86216,259.88384 137.79773,290.13567 C 111.52643,344.37496 90.398031,403.12477 92.195357,463.60756 C 108.69534,490.04476 144.28481,470.0747 164.24609,457.86084 C 236.48303,418.92649 305.05588,365.30969 338.52214,290.6137 C 351.62542,263.57917 361.47086,235.18542 369.31057,206.3645 z "
       id="text2168" />
    <path
       style="fill:none;fill-rule:evenodd;stroke:#000000;stroke-width:14.29507351px;stroke-linecap:butt;stroke-linejoin:miter;stroke-opacity:1"
       d="M 15.621351,91.671742 C 464.29922,91.671742 464.29922,91.671742 464.29922,91.671742 L 15.621351,91.671742 z "
       id="path2172" />
  </g>
</svg>
