<?xml version="1.0" encoding="UTF-8" standalone="no"?>
<svg
   xmlns:dc="http://purl.org/dc/elements/1.1/"
   xmlns:cc="http://web.resource.org/cc/"
   xmlns:rdf="http://www.w3.org/1999/02/22-rdf-syntax-ns#"
   xmlns:svg="http://www.w3.org/2000/svg"
   xmlns="http://www.w3.org/2000/svg"
   xmlns:sodipodi="http://sodipodi.sourceforge.net/DTD/sodipodi-0.dtd"
   xmlns:inkscape="http://www.inkscape.org/namespaces/inkscape"
   width="4000"
   height="2300"
   viewBox="0 -410 3080 1900"
   id="svg2"
   sodipodi:version="0.32"
   inkscape:version="0.45.1"
   sodipodi:docname="cirillico.svg"
   inkscape:output_extension="org.inkscape.output.svg.inkscape"
   sodipodi:docbase="C:\Documents and Settings\Flanker\Desktop"
   version="1.0">
  <metadata
     id="metadata15">
    <rdf:RDF>
      <cc:Work
         rdf:about="">
        <dc:format>image/svg+xml</dc:format>
        <dc:type
           rdf:resource="http://purl.org/dc/dcmitype/StillImage" />
      </cc:Work>
    </rdf:RDF>
  </metadata>
  <defs
     id="defs13" />
  <sodipodi:namedview
     inkscape:window-height="1005"
     inkscape:window-width="1279"
     inkscape:pageshadow="2"
     inkscape:pageopacity="0.0"
     guidetolerance="10.0"
     gridtolerance="10.0"
     objecttolerance="10.0"
     borderopacity="1.0"
     bordercolor="#666666"
     pagecolor="#ffffff"
     id="base"
     inkscape:zoom="0.14104919"
     inkscape:cx="3415.4097"
     inkscape:cy="278.58218"
     inkscape:window-x="1"
     inkscape:window-y="0"
     inkscape:current-layer="svg2"
     width="4000px"
     height="2300px"
     inkscape:showpageshadow="false" />
  <path
     id="path3164"
     style="color:#000000;fill:#f9f9f9;fill-opacity:1;fill-rule:evenodd;stroke:#b3b3b3;stroke-width:12.39130402;stroke-linecap:round;stroke-linejoin:round;stroke-miterlimit:4;stroke-dashoffset:0;stroke-opacity:1;marker:none;marker-start:none;marker-mid:none;marker-end:none;visibility:visible;display:inline;overflow:visible;enable-background:accumulate"
     d="M -105.98536,-355.55365 L 3182.9625,-355.55365M -105.98536,1437.1964 L 3182.9625,1437.1964M -105.98536,5.8022699 L 3182.9625,5.8022699M -105.98536,1084.6989 L 3182.9625,1084.6989M -105.98536,-47.319526 L 3182.9625,-47.319526" />
  <path
     style="font-size:1648.20751953px;font-style:normal;font-weight:normal;fill:#000000;fill-opacity:1;stroke:none;stroke-width:1px;stroke-linecap:butt;stroke-linejoin:miter;stroke-opacity:1;font-family:Lello"
     d="M 738.83272,341.63613 L 768.60991,341.63613 C 783.09597,247.74495 827.09105,172.49727 900.59527,115.89287 C 974.09899,59.290417 1049.2125,30.988705 1125.9361,30.987645 C 1213.3893,30.988705 1292.795,68.411348 1364.1536,143.25569 C 1435.5108,218.10192 1476.8232,337.61294 1488.0911,501.78911 L 1063.1626,501.78911 L 1063.1626,561.34348 L 1488.0911,561.34348 C 1488.0903,664.35688 1469.3119,753.68835 1431.7559,829.33816 C 1394.1983,904.9885 1347.7889,961.32366 1292.5274,998.34382 C 1237.2647,1035.3642 1171.2721,1053.8743 1094.5494,1053.8742 C 943.24878,1053.8743 816.89706,984.93077 715.49384,847.04352 L 693.76454,863.94408 C 797.31389,1031.8767 941.37095,1115.843 1125.9361,1115.843 C 1286.8933,1115.843 1418.4761,1060.9832 1520.6851,951.26367 C 1622.8923,841.54438 1673.9963,707.27891 1673.9973,548.46686 C 1673.9963,433.11445 1646.6335,332.38182 1591.9089,246.26866 C 1537.1823,160.15718 1470.7873,93.359777 1392.7236,45.876238 C 1314.6585,-1.6052101 1225.4611,-25.346457 1125.1314,-25.347573 C 1055.3826,-25.346457 977.58641,-9.7872217 891.7426,21.330179 C 869.20829,29.379129 853.91731,33.403069 845.86963,33.402011 C 826.55452,33.403069 806.16656,14.356419 784.70568,-23.737995 L 757.34286,-23.737995 L 738.83272,341.63613 z M 1807.5922,583.07278 L 1838.1742,583.07278 C 1844.6124,526.73813 1864.4639,479.5239 1897.7286,441.42995 C 1930.993,403.3373 1972.842,384.29065 2023.2757,384.28994 C 2077.4644,384.29065 2122.8008,410.178 2159.285,461.95206 C 2195.7683,513.72739 2219.1071,583.87808 2229.3016,672.40434 L 1990.2793,672.40434 L 1990.2793,724.71561 L 2234.9351,724.71561 L 2234.9351,764.15027 C 2234.9346,870.91914 2213.7419,947.50813 2171.3568,993.91748 C 2128.9709,1040.327 2076.1231,1063.5317 2012.8134,1063.5317 C 1921.0673,1063.5317 1844.8807,1020.3414 1784.2534,933.96071 L 1756.8906,950.05649 C 1831.4676,1058.9713 1922.1403,1113.4286 2028.9092,1113.4286 C 2134.0679,1113.4286 2219.9119,1074.1281 2286.4416,995.52706 C 2352.9702,916.92619 2386.2348,822.63186 2386.2354,712.64378 C 2386.2348,599.97384 2352.1654,508.36213 2284.0272,437.8084 C 2215.888,367.25597 2139.4331,331.97943 2054.6624,331.97867 C 2021.3975,331.97943 1979.8168,339.75904 1929.9202,355.31754 C 1899.8745,364.43921 1880.5596,368.99967 1871.9754,368.99895 C 1860.7082,368.99967 1849.4412,363.90268 1838.1742,353.70796 L 1807.5922,353.70796 L 1807.5922,583.07278 z "
     id="text2159" />
  <text
     xml:space="preserve"
     style="font-size:12px;font-style:normal;font-weight:normal;fill:#000000;fill-opacity:1;stroke:none;stroke-width:1px;stroke-linecap:butt;stroke-linejoin:miter;stroke-opacity:1;font-family:Lello"
     x="-471.24011"
     y="-946.41162"
     id="text2171"><tspan
       sodipodi:role="line"
       id="tspan2173"
       x="-471.24011"
       y="-946.41162" /></text>
</svg>
